<svg xmlns="http://www.w3.org/2000/svg" viewBox="0 0 400 533.33" width="400" height="533.33">
  <rect width="400" height="533.33" fill="#3b5e35"/>
  <path d="M80,40C120,40,140,80,180,80s60-40,100-40,60,40,100,40,60-40,100-40v40c-40,0-60,40-100,40s-60-40-100-40-60,40-100,40S120,80,80,80" fill="#4a7941"/>
  <path d="M80,90C120,90,140,130,180,130s60-40,100-40,60,40,100,40,60-40,100-40v40c-40,0-60,40-100,40s-60-40-100-40-60,40-100,40S120,130,80,130" fill="#3b5e35"/>
  <path d="M80,140C120,140,140,180,180,180s60-40,100-40,60,40,100,40,60-40,100-40v40c-40,0-60,40-100,40s-60-40-100-40-60,40-100,40S120,180,80,180" fill="#4a7941"/>
  <path d="M80,190C120,190,140,230,180,230s60-40,100-40,60,40,100,40,60-40,100-40v40c-40,0-60,40-100,40s-60-40-100-40-60,40-100,40S120,230,80,230" fill="#3b5e35"/>
  <path d="M80,240C120,240,140,280,180,280s60-40,100-40,60,40,100,40,60-40,100-40v40c-40,0-60,40-100,40s-60-40-100-40-60,40-100,40S120,280,80,280" fill="#4a7941"/>
  <path d="M80,290C120,290,140,330,180,330s60-40,100-40,60,40,100,40,60-40,100-40v40c-40,0-60,40-100,40s-60-40-100-40-60,40-100,40S120,330,80,330" fill="#3b5e35"/>
  <path d="M80,340C120,340,140,380,180,380s60-40,100-40,60,40,100,40,60-40,100-40v40c-40,0-60,40-100,40s-60-40-100-40-60,40-100,40S120,380,80,380" fill="#4a7941"/>
  <path d="M80,390C120,390,140,430,180,430s60-40,100-40,60,40,100,40,60-40,100-40v40c-40,0-60,40-100,40s-60-40-100-40-60,40-100,40S120,430,80,430" fill="#3b5e35"/>
  <path d="M80,440C120,440,140,480,180,480s60-40,100-40,60,40,100,40,60-40,100-40v40c-40,0-60,40-100,40s-60-40-100-40-60,40-100,40S120,480,80,480" fill="#4a7941"/>
  <path d="M80,490C120,490,140,530,180,530s60-40,100-40,60,40,100,40,60-40,100-40v40c-40,0-60,40-100,40s-60-40-100-40-60,40-100,40S120,530,80,530" fill="#3b5e35"/>
  
  <!-- Woman (smaller figure behind) -->
  <path d="M182,190c0,0-5,20-2,50c3,30,5,35,5,40s-5,15-5,25c0,10,5,15,5,25c0,10,0,25,0,30s5,10,5,10" fill="none" stroke="#fbd7bd" stroke-width="5"/>
  <path d="M185,370c0,0,0,10,0,20s0,20,0,30s5,20,5,20" fill="none" stroke="#556b50" stroke-width="5"/>
  <path d="M185,370c0,0,0,10,0,20s-5,20-5,30s-5,10-5,20" fill="none" stroke="#556b50" stroke-width="5"/>
  <circle cx="185" cy="180" r="15" fill="#fbd7bd"/>
  <path d="M170,180c0,0,0-10,15-10s15,10,15,10" fill="none" stroke="#ffecd6" stroke-width="2"/>
  <path d="M190,175c0,0-5-15-15-10" fill="none" stroke="#e6e6e6" stroke-width="2"/>
  <path d="M180,175c0,0,5-15,15-10" fill="none" stroke="#e6e6e6" stroke-width="2"/>
  <path d="M182,190c0,0-15,15-20,15s-5,10-10,15s-10,10-10,20s-5,15-5,25" fill="none" stroke="#ededed" stroke-width="5"/>
  <path d="M182,190c0,0,15,15,20,15s5,10,10,15s10,10,10,20s5,15,5,25" fill="none" stroke="#ededed" stroke-width="5"/>
  <path d="M170,225c0,0-5,5-10,10s-5,10-5,15" fill="none" stroke="#e6e6e6" stroke-width="5"/>
  <path d="M200,225c0,0,5,5,10,10s5,10,5,15" fill="none" stroke="#e6e6e6" stroke-width="5"/>
  <path d="M175,255c0,0,5,10,5,25s-5,15-5,30s5,10,5,25" fill="none" stroke="#717d6d" stroke-width="10"/>
  <path d="M195,255c0,0-5,10-5,25s5,15,5,30s-5,10-5,25" fill="none" stroke="#717d6d" stroke-width="10"/>
  <path d="M175,180c0,0,2,5,10,5s10-5,10-5" fill="none" stroke="#e58a7b" stroke-width="2"/>
  
  <!-- Man (larger figure in front) -->
  <path d="M200,320c0,0,10,30,15,40s5,30,5,30" fill="none" stroke="#fbd7bd" stroke-width="10"/>
  <path d="M220,390c0,0,0,20,0,40s10,30,10,40" fill="none" stroke="#ef7149" stroke-width="10"/>
  <path d="M220,390c0,0,0,20,0,40s-10,30-10,40" fill="none" stroke="#ef7149" stroke-width="10"/>
  <circle cx="210" cy="290" r="30" fill="#fbd7bd"/>
  <path d="M190,280c0,0-10,15-10,20s5,20,10,20s5-15,10-20s5-15,5-20" fill="#83663d"/>
  <path d="M200,282c0,0,10,5,20,0" fill="none" stroke="#e58a7b" stroke-width="3"/>
  <path d="M230,280c0,0,10,15,10,20s-5,20-10,20s-5-15-10-20s-5-15-5-20" fill="#83663d"/>
  <path d="M185,290c0,0,5,5,10,5" fill="none" stroke="#000" stroke-width="2"/>
  <path d="M235,290c0,0-5,5-10,5" fill="none" stroke="#000" stroke-width="2"/>
  <path d="M200,320c0,0-15,10-20,20s-10,10-15,20s-10,30-15,40" fill="none" stroke="#ef7149" stroke-width="10"/>
  <path d="M200,320c0,0,15,10,20,20s10,10,15,20s10,30,15,40" fill="none" stroke="#ef7149" stroke-width="10"/>
  <path d="M175,350c0,0-10,20-10,30" fill="none" stroke="#4c9249" stroke-width="10"/>
  <path d="M245,350c0,0,10,20,10,30" fill="none" stroke="#4c9249" stroke-width="10"/>
  <path d="M180,275c0,0-5,5-5,10s5,10,10,10" fill="none" stroke="#000" stroke-width="2"/>
  <path d="M240,275c0,0,5,5,5,10s-5,10-10,10" fill="none" stroke="#000" stroke-width="2"/>
  <path d="M190,310c0,0,10,10,20,10s20-10,20-10" fill="none" stroke="#a36d44" stroke-width="3"/>
  <path d="M190,265c0,0,10-10,20-10s20,10,20,10" fill="#7a5836"/>
  
  <!-- Peace signs -->
  <path d="M165,125c0,0-10,10-10,20s10,20,10,20" fill="none" stroke="#fbd7bd" stroke-width="5"/>
  <path d="M175,125c0,0,10,10,10,20s-10,20-10,20" fill="none" stroke="#fbd7bd" stroke-width="5"/>
  <path d="M245,125c0,0-10,10-10,20s10,20,10,20" fill="none" stroke="#fbd7bd" stroke-width="5"/>
  <path d="M255,125c0,0,10,10,10,20s-10,20-10,20" fill="none" stroke="#fbd7bd" stroke-width="5"/>
</svg>